<svg xmlns="http://www.w3.org/2000/svg" xmlns:xlink="http://www.w3.org/1999/xlink" width="113.478" height="80.96" viewBox="0 0 113.478 80.96">
  <defs>
    <linearGradient id="linear-gradient" x1="-0.091" y1="-0.061" x2="1.126" y2="1.085" gradientUnits="objectBoundingBox">
      <stop offset="0" stop-color="#fc00ff"/>
      <stop offset="1" stop-color="#21d4fd"/>
    </linearGradient>
    <filter id="Path_217" x="0" y="0" width="113.478" height="80.96" filterUnits="userSpaceOnUse">
      <feOffset dy="3" input="SourceAlpha"/>
      <feGaussianBlur stdDeviation="3" result="blur"/>
      <feFlood flood-opacity="0.22"/>
      <feComposite operator="in" in2="blur"/>
      <feComposite in="SourceGraphic"/>
    </filter>
  </defs>
  <g transform="matrix(1, 0, 0, 1, 0, 0)" filter="url(#Path_217)">
    <path id="Path_217-2" data-name="Path 217" d="M87.346,0H8.129A8.2,8.2,0,0,0,0,8.129v46.7A8.2,8.2,0,0,0,8.129,62.96H87.346a8.2,8.2,0,0,0,8.129-8.129V8.129A8.012,8.012,0,0,0,87.346,0ZM11.676,11.823H23.5a4.762,4.762,0,0,1,4.729,4.729A4.669,4.669,0,0,1,23.5,21.282H11.676a4.762,4.762,0,0,1-4.729-4.729A4.669,4.669,0,0,1,11.676,11.823Zm77,32.958H6.946V31.48H88.676Z" transform="translate(9 6)" fill="url(#linear-gradient)"/>
  </g>
</svg>
