<svg id="mastercardlogo" xmlns="http://www.w3.org/2000/svg" width="60.922" height="37.656" viewBox="0 0 60.922 37.656">
  <path id="Path_72" data-name="Path 72" d="M16.473,29.6H0V0H16.473Z" transform="translate(22.225 4.025)" fill="#ff5f00"/>
  <path id="Path_73" data-name="Path 73" d="M23.269,18.828a18.8,18.8,0,0,1,7.19-14.8,18.828,18.828,0,1,0,0,29.6,18.8,18.8,0,0,1-7.191-14.8" transform="translate(0 0)" fill="#eb001b"/>
  <path id="Path_74" data-name="Path 74" d="M30.462,18.828A18.827,18.827,0,0,1,0,33.63a18.794,18.794,0,0,0,7.192-14.8A18.794,18.794,0,0,0,0,4.026a18.826,18.826,0,0,1,30.461,14.8" transform="translate(30.461 0)" fill="#f79e1b"/>
</svg>
