<svg xmlns="http://www.w3.org/2000/svg" width="61.867" height="20.071" viewBox="0 0 61.867 20.071">
  <path id="Path_67" data-name="Path 67" d="M26.82,19.737H21.772L24.927.346h5.049ZM17.525.346,12.712,13.683l-.57-2.872h0l-1.7-8.72A2.161,2.161,0,0,0,8.05.346H.093L0,.675A18.885,18.885,0,0,1,5.281,2.891L9.667,19.737h5.26L22.958.346Zm39.707,19.39h4.635L57.826.346H53.768a2.32,2.32,0,0,0-2.33,1.445L43.908,19.737h5.262l1.052-2.88h6.418l.591,2.88Zm-5.555-6.859L54.33,5.621l1.492,7.256ZM44.3,5.009l.72-4.164A14.571,14.571,0,0,0,40.483,0c-2.505,0-8.454,1.095-8.454,6.419,0,5.009,6.982,5.072,6.982,7.7s-6.263,2.16-8.33.5l-.751,4.354a14.147,14.147,0,0,0,5.7,1.095c3.445,0,8.642-1.784,8.642-6.639,0-5.042-7.045-5.511-7.045-7.7s4.917-1.911,7.077-.72Z" fill="#fff"/>
</svg>
